PathFileType	4	(X/Y/Z)	Walk3.trc
DataRate	CameraRate	NumFrames	NumMarkers	Units	OrigDataRate	OrigDataStartFrame	OrigNumFrames
200.000000	200.000000	9	61	mm	200.000000	525	737
Frame#	Times		LTH3		RCAR		LBHD		RTH2		LWRU		LUA1		LElbow		RTH3		LFA1		LCAR		C7		RPSI		LElbowM		RTB3		RBHD		RASI		RTB1		RTB2		RToe		LTH4		RFA1		RMT5		RWRU		LWRR		LTH2		RLFC		RElbow		RTB4		RMT1		RMMAL		T10		RBack		RLMAL		STRN		LASI		LPSI		CLAV		RCAL		RUA1		RElbowM		LLFC		LFHD		LACR1		LTB3		RFHD		LTB4		LCAL		RACR1		LTB2		LMMAL		RTH1		LTB1		LMT5		LLMAL		RTH4		LMFC		RWRR		RMFC		LTH1		LToe		LMT1
			X1	Y1	Z1	X2	Y2	Z2	X3	Y3	Z3	X4	Y4	Z4	X5	Y5	Z5	X6	Y6	Z6	X7	Y7	Z7	X8	Y8	Z8	X9	Y9	Z9	X10	Y10	Z10	X11	Y11	Z11	X12	Y12	Z12	X13	Y13	Z13	X14	Y14	Z14	X15	Y15	Z15	X16	Y16	Z16	X17	Y17	Z17	X18	Y18	Z18	X19	Y19	Z19	X20	Y20	Z20	X21	Y21	Z21	X22	Y22	Z22	X23	Y23	Z23	X24	Y24	Z24	X25	Y25	Z25	X26	Y26	Z26	X27	Y27	Z27	X28	Y28	Z28	X29	Y29	Z29	X30	Y30	Z30	X31	Y31	Z31	X32	Y32	Z32	X33	Y33	Z33	X34	Y34	Z34	X35	Y35	Z35	X36	Y36	Z36	X37	Y37	Z37	X38	Y38	Z38	X39	Y39	Z39	X40	Y40	Z40	X41	Y41	Z41	X42	Y42	Z42	X43	Y43	Z43	X44	Y44	Z44	X45	Y45	Z45	X46	Y46	Z46	X47	Y47	Z47	X48	Y48	Z48	X49	Y49	Z49	X50	Y50	Z50	X51	Y51	Z51	X52	Y52	Z52	X53	Y53	Z53	X54	Y54	Z54	X55	Y55	Z55	X56	Y56	Z56	X57	Y57	Z57	X58	Y58	Z58	X59	Y59	Z59	X60	Y60	Z60	X61	Y61	Z61

525	2.625	-96.281	606.2	-170.22	-55.874	817.35	348.26	-7.4279	1622.7	-99.819	147.94	717.08	156.44	192.73	887.38	-297.03	17.269	1279	-287.06	29.049	1123.8	-325.28	108.8	604.74	174.79	110.14	992.62	-323.36	275.4	887.87	-303.32	-40.006	1495.4	-20.849	-152.01	1003	47.311	-6.3797	1100.5	-259.43	223.5	198.44	92.938	-2.3529	1630.5	41.808	63.642	1020	139.92	210.98	383.86	103.49	189.94	282.03	160.2	387.02	52.608	119.24	-71.165	694.24	-181.59	-114.68	994.11	319	291.83	26.542	168.18	-108.52	856.85	331.66	246.05	932.64	-251.75	-4.3514	679.76	-160.43	133.69	496.77	169.86	-106.12	1141.1	283.73	218.65	291.14	96.777	341.35	45.66	95.482	229.94	98.639	56.85	-155.26	1276.8	-13.123	-123.59	1414	109.92	194.86	67.883	133.57	125.09	1226.1	-20.479	45.093	1015	-149.7	-158	1002.9	-29.373	86.664	1400.1	-20.113	147.41	30.94	77.97	-38.603	1281.6	244.76	-126.85	1124	206.97	-137.27	507.03	-160.42	173.59	1654.7	-63.731	29.277	1443.7	-184.29	-246.49	199.32	-88.098	175.12	1657.6	12.989	-196.18	281.68	-85.928	-410.77	74.179	-87.469	31.848	1443.1	143.19	-214.49	294.02	-158.67	-311.5	112.09	-49.361	54.254	787.09	196.97	-150.15	358.54	-86.861	-261.45	20.178	-160.7	-343.54	100.53	-131.63	85.262	696.68	191.25	-119.47	508.2	-31.765	-43.502	850.46	291.26	146.82	510.05	37.221	-43.753	783	-193.96	-159.62	28.373	-91.29	-211.72	38.558	-77.057
526	2.63	-89.906	605.83	-169.66	-49.464	816.56	348.85	-2.1978	1622.9	-98.304	154.44	717.89	156.99	195.13	886.34	-296.19	21.652	1279	-285.75	32.783	1123.7	-323.85	115.41	605.48	175.41	113.07	992.1	-322.21	277.79	886.38	-302.65	-34.703	1495.5	-19.445	-146.29	1003.1	48.369	-2.5658	1100.6	-257.94	225.95	197.94	92.892	2.9546	1630.5	43.331	69.533	1020.2	140.98	215.64	383.49	103.65	194.05	281.88	160.53	388.49	49.934	118.7	-65.094	693.99	-180.82	-108.13	993.42	319.89	292.25	25.786	168.44	-102.1	856.12	332.42	248.8	931.27	-250.98	1.7717	679.65	-159.7	140.06	497.29	170.67	-99.554	1140.4	284.78	222.18	290.69	96.813	342.17	44.15	95.168	231.01	98.084	56.728	-149.91	1276.9	-11.914	-118.13	1413.8	111.44	195.94	67.794	133.7	130.55	1226.3	-19.482	50.668	1015	-148.45	-152.34	1002.7	-28.339	91.953	1400.3	-18.939	147.71	31.371	78.342	-32.514	1281.1	245.88	-120.51	1123.4	208.09	-130.74	506.74	-160.1	178.83	1654.9	-62.276	34.368	1443.9	-183.13	-243.53	200.35	-88.178	180.42	1657.7	14.448	-192.14	282.03	-85.934	-409.42	77.866	-87.509	37.307	1442.8	144.42	-210.29	294.67	-158.66	-309.6	113.96	-49.555	60.738	787.82	197.68	-145.1	358.23	-86.8	-261.39	20.611	-160.44	-341.92	102.95	-131.79	91.806	697.44	191.88	-113.08	507.75	-31.455	-37.273	849.67	291.83	152.33	510.49	37.955	-37.975	782.84	-192.97	-159.71	28.317	-91.339	-211.46	38.445	-77.002
527	2.635	-83.275	605.45	-169.11	-42.884	815.82	349.39	3.0538	1623.2	-96.796	160.88	718.73	157.55	197.36	885.3	-295.34	26.033	1279.1	-284.42	36.486	1123.7	-322.38	121.95	606.27	176.1	115.9	991.61	-321.04	280.01	884.83	-301.99	-29.403	1495.7	-18.052	-140.57	1003.3	49.43	1.2187	1100.8	-256.38	228.26	197.49	92.866	8.2734	1630.7	44.848	75.42	1020.6	142.04	220.15	383.16	103.85	197.98	281.75	160.87	389.83	47.52	118.25	-58.832	693.75	-180.06	-101.45	992.8	320.77	292.59	25.211	168.72	-95.504	855.46	333.14	251.43	929.85	-250.2	8.0879	679.61	-158.94	146.29	497.8	171.49	-92.891	1139.7	285.8	225.57	290.3	96.879	342.89	42.884	94.915	231.96	97.609	56.613	-144.56	1277	-10.718	-112.66	1413.7	112.96	196.88	67.76	133.81	136.01	1226.6	-18.481	56.249	1015.1	-147.17	-146.69	1002.7	-27.307	97.247	1400.5	-17.77	147.96	31.766	78.696	-26.363	1280.6	246.98	-114.1	1122.8	209.2	-123.91	506.44	-159.82	184.09	1655.1	-60.812	39.47	1444.2	-181.98	-240.34	201.48	-88.302	185.73	1657.9	15.916	-187.83	282.43	-86.004	-407.85	81.822	-87.521	42.777	1442.7	145.64	-205.85	295.4	-158.7	-307.47	115.96	-49.773	67.189	788.62	198.41	-139.74	357.95	-86.822	-261.3	21.129	-160.16	-340.1	105.53	-131.94	98.303	698.27	192.55	-106.4	507.27	-31.192	-30.906	848.95	292.35	157.76	510.97	38.703	-32.076	782.71	-191.97	-159.82	28.257	-91.38	-211.18	38.318	-76.936
528	2.64	-76.38	605.06	-168.6	-36.131	815.16	349.87	8.3245	1623.6	-95.299	167.24	719.59	158.12	199.43	884.25	-294.47	30.412	1279.2	-283.07	40.159	1123.8	-320.85	128.38	607.1	176.86	118.63	991.17	-319.83	282.05	883.23	-301.33	-24.111	1496	-16.672	-134.85	1003.5	50.497	4.9734	1101	-254.75	230.43	197.08	92.853	13.6	1630.9	46.356	81.298	1021.1	143.11	224.5	382.86	104.09	201.72	281.64	161.22	391.06	45.353	117.87	-52.374	693.52	-179.31	-94.631	992.23	321.62	292.86	24.794	169.02	-88.744	854.86	333.84	253.92	928.4	-249.42	14.603	679.62	-158.17	152.37	498.3	172.29	-86.141	1139.1	286.82	228.81	289.94	96.966	343.53	41.842	94.71	232.79	97.205	56.499	-139.22	1277.1	-9.5336	-107.18	1413.7	114.49	197.71	67.772	133.9	141.47	1227	-17.478	61.832	1015.3	-145.85	-141.05	1002.7	-26.272	102.54	1400.8	-16.608	148.19	32.121	79.026	-20.153	1280.2	248.07	-107.61	1122.3	210.31	-116.76	506.13	-159.57	189.38	1655.5	-59.34	44.579	1444.5	-180.82	-236.88	202.71	-88.478	191.05	1658.1	17.392	-183.24	282.89	-86.146	-406.01	86.051	-87.507	48.256	1442.7	146.84	-201.15	296.21	-158.8	-305.09	118.1	-50.018	73.585	789.48	199.17	-134.07	357.69	-86.934	-261.16	21.741	-159.85	-338.06	108.28	-132.11	104.72	699.13	193.26	-99.436	506.77	-30.985	-24.4	848.3	292.81	163.08	511.48	39.453	-26.052	782.62	-190.96	-159.96	28.193	-91.411	-210.89	38.179	-76.855
529	2.645	-69.212	604.67	-168.12	-29.2	814.56	350.29	13.611	1624	-93.816	173.51	720.43	158.7	201.34	883.21	-293.57	34.793	1279.4	-281.7	43.804	1124	-319.27	134.66	607.93	177.66	121.26	990.77	-318.59	283.93	881.59	-300.68	-18.831	1496.3	-15.305	-129.13	1003.8	51.573	8.6987	1101.4	-253.07	232.48	196.72	92.844	18.93	1631.2	47.851	87.166	1021.7	144.2	228.67	382.56	104.34	205.27	281.52	161.57	392.17	43.42	117.57	-45.715	693.3	-178.58	-87.686	991.72	322.45	293.09	24.513	169.3	-81.814	854.33	334.5	256.28	926.91	-248.64	21.321	679.69	-157.38	158.25	498.75	173.08	-79.309	1138.6	287.81	231.88	289.61	97.066	344.1	40.999	94.54	233.52	96.861	56.382	-133.9	1277.4	-8.3607	-101.7	1413.7	116	198.43	67.822	133.98	146.91	1227.5	-16.477	67.414	1015.6	-144.5	-135.42	1002.8	-25.23	107.84	1401.2	-15.454	148.4	32.434	79.325	-13.888	1279.9	249.14	-101.05	1121.9	211.4	-109.28	505.82	-159.37	194.68	1655.8	-57.861	49.69	1445	-179.66	-233.14	204.03	-88.711	196.39	1658.4	18.874	-178.35	283.41	-86.367	-403.89	90.555	-87.469	53.745	1442.7	148.03	-196.18	297.1	-158.95	-302.43	120.37	-50.294	79.906	790.37	199.95	-128.09	357.45	-87.145	-260.97	22.458	-159.54	-335.78	111.21	-132.28	111.04	700.01	194.02	-92.155	506.24	-30.842	-17.751	847.72	293.21	168.29	512.01	40.198	-19.9	782.56	-189.94	-160.12	28.124	-91.434	-210.57	38.033	-76.761
530	2.65	-61.768	604.26	-167.68	-22.088	814.04	350.64	18.91	1624.5	-92.349	179.65	721.23	159.3	203.09	882.16	-292.67	39.179	1279.7	-280.32	47.421	1124.2	-317.66	140.75	608.75	178.5	123.79	990.41	-317.32	285.65	879.91	-300.03	-13.568	1496.7	-13.951	-123.42	1004.2	52.662	12.395	1101.9	-251.34	234.39	196.39	92.836	24.26	1631.5	49.331	93.023	1022.4	145.29	232.66	382.28	104.61	208.61	281.4	161.89	393.17	41.704	117.32	-38.85	693.09	-177.87	-80.613	991.28	323.26	293.27	24.345	169.56	-74.71	853.88	335.13	258.52	925.39	-247.86	28.245	679.81	-156.58	163.9	499.17	173.85	-72.4	1138.1	288.79	234.8	289.3	97.173	344.6	40.332	94.398	234.15	96.569	56.261	-128.59	1277.7	-7.1969	-96.215	1413.9	117.52	199.06	67.901	134.03	152.35	1228	-15.479	72.99	1015.9	-143.13	-129.81	1002.9	-24.176	113.13	1401.7	-14.31	148.58	32.708	79.591	-7.5731	1279.7	250.2	-94.434	1121.5	212.5	-101.47	505.49	-159.21	199.99	1656.3	-56.377	54.799	1445.5	-178.5	-229.11	205.45	-89.005	201.72	1658.8	20.359	-173.15	283.98	-86.67	-401.47	95.328	-87.409	59.242	1442.8	149.21	-190.94	298.08	-159.17	-299.47	122.76	-50.605	86.13	791.26	200.76	-121.77	357.23	-87.457	-260.7	23.292	-159.21	-333.23	114.3	-132.45	117.21	700.88	194.8	-84.545	505.66	-30.767	-10.957	847.24	293.55	173.36	512.55	40.929	-13.618	782.52	-188.92	-160.32	28.049	-91.449	-210.24	37.885	-76.654
531	2.655	-54.046	603.84	-167.29	-14.792	813.59	350.92	24.217	1625.1	-90.9	185.64	721.95	159.92	204.7	881.13	-291.74	43.571	1280	-278.92	51.011	1124.4	-316	146.62	609.54	179.36	126.23	990.11	-316.02	287.19	878.19	-299.39	-8.3254	1497.1	-12.611	-117.71	1004.7	53.767	16.064	1102.4	-249.56	236.17	196.07	92.826	29.586	1631.9	50.794	98.866	1023.1	146.38	236.45	381.99	104.88	211.76	281.27	162.2	394.07	40.188	117.13	-31.778	692.87	-177.18	-73.414	990.89	324.04	293.42	24.267	169.79	-67.43	853.49	335.72	260.63	923.85	-247.08	35.375	679.98	-155.78	169.3	499.53	174.58	-65.422	1137.7	289.76	237.56	289	97.283	345.03	39.816	94.276	234.71	96.319	56.135	-123.29	1278	-6.0394	-90.727	1414.1	119.02	199.59	68.001	134.06	157.77	1228.6	-14.488	78.555	1016.4	-141.75	-124.23	1003.1	-23.106	118.42	1402.2	-13.179	148.74	32.941	79.821	-1.2122	1279.6	251.25	-87.759	1121.2	213.58	-93.327	505.14	-159.11	205.31	1656.7	-54.893	59.902	1446.1	-177.33	-224.77	206.96	-89.362	207.06	1659.1	21.845	-167.63	284.61	-87.057	-398.71	100.36	-87.331	64.748	1443	150.36	-185.42	299.14	-159.45	-296.19	125.27	-50.953	92.24	792.13	201.6	-115.12	357.04	-87.872	-260.33	24.255	-158.88	-330.41	117.56	-132.64	123.22	701.71	195.6	-76.591	505.03	-30.764	-4.0155	846.83	293.82	178.27	513.08	41.644	-7.2048	782.5	-187.89	-160.53	27.97	-91.459	-209.87	37.743	-76.537
532	2.66	-46.047	603.4	-166.94	-7.3084	813.22	351.14	29.526	1625.7	-89.472	191.48	722.58	160.57	206.16	880.12	-290.8	47.971	1280.4	-277.5	54.575	1124.8	-314.31	152.24	610.26	180.23	128.57	989.85	-314.7	288.58	876.43	-298.74	-3.1044	1497.6	-11.285	-112	1005.1	54.892	19.705	1103	-247.73	237.83	195.78	92.815	34.903	1632.4	52.238	104.69	1024	147.47	240.04	381.7	105.15	214.7	281.12	162.49	394.87	38.858	116.98	-24.501	692.65	-176.53	-66.092	990.57	324.81	293.55	24.258	169.98	-59.971	853.17	336.27	262.62	922.28	-246.29	42.709	680.19	-154.98	174.41	499.84	175.29	-58.379	1137.4	290.71	240.15	288.71	97.395	345.42	39.425	94.168	235.2	96.102	56.005	-118.01	1278.4	-4.8846	-85.237	1414.4	120.52	200.06	68.112	134.06	163.17	1229.3	-13.505	84.105	1016.9	-140.36	-118.66	1003.3	-22.015	123.7	1402.8	-12.063	148.88	33.137	80.014	5.1903	1279.5	252.28	-81.035	1121	214.66	-84.86	504.78	-159.05	210.64	1657.2	-53.41	64.992	1446.7	-176.15	-220.1	208.55	-89.782	212.4	1659.5	23.327	-161.77	285.29	-87.526	-395.59	105.65	-87.242	70.263	1443.3	151.5	-179.6	300.29	-159.8	-292.59	127.88	-51.34	98.221	792.96	202.47	-108.13	356.86	-88.387	-259.83	25.361	-158.56	-327.28	120.97	-132.84	129.03	702.49	196.43	-68.279	504.35	-30.831	3.075	846.52	294.03	182.99	513.58	42.342	-0.66099	782.5	-186.88	-160.75	27.887	-91.465	-209.46	37.615	-76.414
533	2.665	-37.776	602.94	-166.64	0.36521	812.92	351.28	34.834	1626.4	-88.066	197.13	723.1	161.27	207.48	879.13	-289.86	52.381	1280.9	-276.08	58.112	1125.2	-312.58	157.58	610.91	181.1	130.84	989.63	-313.35	289.82	874.66	-298.1	2.0932	1498.1	-9.9706	-106.31	1005.7	56.038	23.322	1103.7	-245.86	239.37	195.49	92.805	40.207	1632.9	53.66	110.5	1024.9	148.57	243.44	381.4	105.43	217.43	280.96	162.75	395.58	37.697	116.86	-17.022	692.42	-175.91	-58.65	990.3	325.55	293.66	24.3	170.15	-52.335	852.92	336.79	264.49	920.69	-245.5	50.244	680.45	-154.19	179.23	500.09	175.96	-51.279	1137.1	291.66	242.6	288.42	97.508	345.75	39.138	94.067	235.62	95.911	55.871	-112.73	1278.8	-3.7283	-79.744	1414.7	122.01	200.45	68.227	134.03	168.55	1230	-12.534	89.635	1017.6	-138.96	-113.13	1003.7	-20.902	128.97	1403.5	-10.964	149	33.297	80.17	11.63	1279.5	253.31	-74.267	1120.9	215.74	-76.074	504.4	-159.05	215.96	1657.7	-51.934	70.064	1447.4	-174.97	-215.11	210.23	-90.262	217.73	1660	24.801	-155.58	286.02	-88.071	-392.11	111.16	-87.147	75.786	1443.7	152.62	-173.48	301.51	-160.2	-288.64	130.59	-51.766	104.06	793.73	203.36	-100.8	356.7	-88.992	-259.19	26.624	-158.24	-323.83	124.52	-133.06	134.64	703.19	197.27	-59.598	503.61	-30.964	10.315	846.29	294.17	187.51	514.06	43.021	6.0115	782.49	-185.87	-160.98	27.802	-91.473	-208.99	37.516	-76.289
